<?xml version="1.0" encoding="UTF-8"?>
<svg id="Layer_1" xmlns="http://www.w3.org/2000/svg" version="1.1" viewBox="0 0 216 216">
  <!-- Generator: Adobe Illustrator 30.1.0, SVG Export Plug-In . SVG Version: 2.1.1 Build 136)  -->
  <g id="YXpm0V.tif">
    <g>
      <path d="M59.97,126.87h-2.48c-1.59-.83-3.21-.12-4.96-.92l.04-36.24c2.04-.19,3.88-.33,5.73-.09,3.08.39,4.94,3.14,5.03,6.04.06,1.89-.18,3.48-1.3,4.85,3.06.52,6.17,1.5,8.14,3.97,3.95,4.97,4.12,12.24.45,17.3-2.64,3.63-6.62,4.42-10.64,5.1ZM58.35,94.77c-.45-.29-1.68-1.01-1.89-.24-.49,1.78-.15,3.9-.14,5.58.79.48,1.83-.19,2.26-.66,1.07-1.18.64-4.12-.23-4.68ZM64.94,118.84c2.98-3.66,2.77-9.23-.22-12.66-2.1-2.41-5.39-2.88-8.46-2.65v17.95c3.02.21,6.54-.02,8.68-2.65Z"/>
      <path d="M154.78,112.02c-.35-1.86-1.75-3.02-3.35-4.19l-3.54,18.59-5.71.04c-.25-1.6.17-2.88.48-4.44l6.61-32.32c2.28-.3,4.22-.13,6.62-.11l7.57,36.65c-2.05.46-3.94.17-6.01.18l-2.67-14.4ZM153.77,102.84c-.5-2.6-.45-4.96-1.14-7.18l-.6,4.96c-.07.59-.15,1.56.25,1.93.24.22.92.38,1.49.29Z"/>
      <g>
        <path d="M136.97,123.17c-5.42,3.51-11.8,3.72-17.93,2.88-1.34-.18-3.3-.35-3.3-2.13l.04-32.64c1.25-1.79,4.21-1.52,6.06-1.8,5.71-.87,12.84.2,17.06,4.18,7.33,6.91,7.74,23.25-1.94,29.52ZM136.92,107.52c-.03-6.41-4.31-11.6-10.87-12.3-1.49-.16-2.94-.62-4.57-.25v27.44c2.14-.13,4.2-.42,6.15-.84,7.62-1.66,9.31-7.54,9.28-14.05Z"/>
        <path d="M84,126.44l-4.75-23.61-.39,23.46c-1.69.32-3.18.19-4.85.13v-36.47c3.17-1.16,6.6-1.1,9.62.25,2.49,1.12,3.65,3.26,3.68,5.91s-.87,4.75-3.53,5.86l5.52,24.28c-1.87.39-3.28.21-5.3.19ZM82.66,97.11c.55-2.49-2.08-3.63-4.07-3.41v5.69c1.52.06,3.66-.43,4.07-2.28Z"/>
        <path d="M112.9,105.13c-.64.99-2.69.12-3.78.42l-.02,16.03,5.61-.79c.34,2,.14,3.74.15,5.68h-11.96s0-36.91,0-36.91l11.85-.04c.23,1.78.22,3.6-.03,5.69l-7.14-.85c-.32,2.06-.06,4.07-.15,6.25l5.8.05c-.28,1.37.51,3.15-.35,4.48Z"/>
        <path d="M89.5,102.37c4.6-2.58,6.41-.62,6.46-3.39.02-1.07-.09-1.77-1.18-2.01-2.34-.52-1.05,3.23-4.28,2.9-.98-.1-1.73-.38-1.98-1.19-.29-.93.02-1.83.84-2.53,3.09-2.61,11.17-2.44,11.39,1.12.23,3.76.11,7.22-.01,11.12-3.48,2.14-8.4,2.41-11.91.08-2.16-1.44-1.42-4.93.67-6.1ZM95.74,106.94c.3-1.48.22-3.13.02-4.28-1.39.32-2.31.67-2.7,1.54-.34.75-.44,1.9.29,2.7.4.44,2.09.56,2.39.04Z"/>
        <path d="M99.67,126.35c-.89.43-2.37,0-3.5.04,2.03-3.9.52-5.83-.94-10.37-.54-1.7.12-3.97,1.63-4.93.95-.61,2.26-.32,3.3.3-3.7,5.97,4.13,9-.49,14.95Z"/>
        <path d="M94.17,125.9c-.7,1.05-2.9.53-3.75.39.23-1.5,1.22-2.34.9-3.49l-2.09-7.75c-.39-1.44.34-2.81,1.27-3.61.98-.84,2.48-.89,3.82-.06-4.01,4.68,3.48,9.04-.16,14.52Z"/>
        <path d="M100.84,92.62l-5.36.55c-2.36.24-4.62-.31-7,.55-.51-.99-.88-3.17-.08-3.79,1.81-1.03,4.23,0,6.22,0l5,.02c.77,0,1.21.47,1.47.84.24.34.47,1.77-.24,1.84Z"/>
      </g>
    </g>
  </g>
</svg>